<?xml version="1.0" encoding="UTF-8"?>
<svg version="1.1" viewBox="0 0 2048 2048" width="1280" height="1280" xmlns="http://www.w3.org/2000/svg">
<path transform="translate(0)" d="m0 0h2048v2048h-2048z" fill="#FDFEFE"/>
<path transform="translate(255,822)" d="m0 0h21l17 4 12 5 11 7 11 10 8 7 6 7 5 5 5 2 2-4 21-21 12-9 16-8 13-4 5-1h21l16 4 12 5 14 9 10 9 122 122 8 13 5 10 4 13 1 6v23l-4 15-8 17-10 13-7 8-4 4h-2l-2 4h-2l-2 4-8 7-5 5-6 7-8 7-79 79-13 9-15 7-17 4h-20l-16-4-16-8-11-8-10-9-17-17-4 1-22 22-12 9-14 8-16 5-6 1h-21l-15-4-10-4-13-8-10-9-8-7-19-19v-2l-4-2-39-39v-2l-4-2v-2l-4-2v-2l-4-2v-2l-4-2-27-27v-2h-2l-7-8-8-11-8-16-4-13-1-6v-17l3-16 6-15 10-15 9-9 5-6 8-7 4-5 7-6 5-6 8-7 65-65 5-6 8-7 9-8 15-9 18-6z" fill="#16AEFF"/>
<path transform="translate(259,873)" d="m0 0h15l10 4 12 11 3 3v2l-5 3h-2l-3 9-2 10 1 7 2 7-8-6-7-8-5 1-70 70 1 4 7 9 5 12 2 10v12l-4 15-7 12-6 5 1 4 16 15 51 51 4-2 81-81-2-4-12-11-10-10-3-4-4 1-12 12-8 7-5 6-4-1-23-23 1-5 10-9 131-131 8-5 6-2h14l10 4 8 6 119 119 6 10 2 5v14l-6 12-9 10-114 114-10 6-5 2h-14l-12-5-10-9-4-5 1-4h6l3-10 3-7-1-9-2-5 5 2 9 9 3 1 8-7 65-65-2-4-4-4-6-12-3-11v-19l3-10 7-13 6-7-2-4-10-9-52-52-2-3-4 1-9 9-8 7-65 65 1 4 15 14 12 12 4-2 23-23 5 1 5 4 5 5v2l4 2v2l4 2 5 5-1 4-4 2-1 3-8 7-14 14-5 6-6 5-6 7-6 5-5 5-4 5-6 5-3 4h-2l-2 4h-2l-1 3-6 5-6 7-6 5-6 7-6 5-5 6-6 5-2 3h-2l-2 4-15 15-10 7-9 4h-13l-12-5-9-7-33-33v-2l-4-2-12-12v-2l-3-1-7-8-5-5-10-9-6-6v-2l-4-2-32-32-6-9-3-12 1-11 6-12 122-122 10-6z" fill="#FEFFFE"/>
<path transform="translate(754,910)" d="m0 0h44l1 91h96v-90l1-1h44l1 1v226l-1 1h-43l-2-1v-91l-95 1-1 1-1 90h-44l-1-1v-226z" fill="#0F1F30"/>
<path transform="translate(1045,974)" d="m0 0h30l15 4 9 4 12 7 12 11 7 10 7 14 5 19 1 18-2 15-5 17-9 16-12 13-10 7-14 7-15 4-7 1h-18l-17-3-13-5-14-9-9-8-10-14-6-12-4-14-2-14v-9l3-19 4-12 8-15 9-11 11-9 15-8 13-4z" fill="#0F1F30"/>
<path transform="translate(1829,910)" d="m0 0h42l1 1 1 125 9-10 9-11 12-14 9-11 11-13 51-1-2 5-9 10-9 11-12 14-14 17-12 14-4 5 2 4 9 11 9 10 9 11 12 14 9 11 12 14 7 9v2h-49l-5-5-10-11-9-11-11-13-12-14-9-11-3-3-1 3v64l-1 1h-42l-1-1v-226z" fill="#0F1F30"/>
<path transform="translate(1715,974)" d="m0 0h18l16 4 12 6 10 9 7 9 6 15 2 11v109l-1 1h-42l-1-1-1-101-4-11-5-6-11-6-4-1h-13l-10 4-6 4-7 11-1 4-1 101-1 2h-42l-1-1v-160h44v10l-1 3 18-11 12-4z" fill="#0F1F30"/>
<path transform="translate(1230,973)" d="m0 0h15l15 2 15 5 13 8 10 9 5 7-1 5-16 10-9 6-4-2-10-8-11-5-14-3-11 1-8 4-3 5v6l4 6 14 7 29 9 16 8 9 6 9 9 6 12 1 4v15l-3 12-6 10-4 5-10 7-8 4-14 4-6 1h-30l-15-3-15-6-10-7-10-9-7-11 1-4 24-16 4-2 7 8 11 8 12 5 3 1h20l7-3 5-6v-8l-2-4-10-6-39-13-17-9-12-11-5-9-2-6v-19l3-10 6-9 7-7 12-7 13-4z" fill="#0F1F30"/>
<path transform="translate(1347,927)" d="m0 0h43l1 49h32l2 1v25l-1 8-34 1 1 79 3 7 5 4 9 2h14l1 16v18l-2 1h-31l-14-2-12-5-8-7-6-10-3-10-1-7-1-86-19-1-1-33 2-1h19v-48z" fill="#0F1F30"/>
<path transform="translate(1460,910)" d="m0 0h42l1 1v127l-1 100h-42l-1-1v-226z" fill="#0F1F30"/>
<path transform="translate(1574,976)" d="m0 0h16l1 1v159l-2 2h-42v-161z" fill="#0F1F30"/>
<path transform="translate(1053,1015)" d="m0 0h12l13 4 10 7 6 8 5 13 1 12-3 15-6 11-9 8-11 5-4 1h-15l-11-4-9-6-7-9-4-10-1-4v-18l4-12 6-8 9-8 10-4z" fill="#FAFDFE"/>
<path transform="translate(1564,905)" d="m0 0h9l10 4 7 7 3 7v12l-4 8-8 7-7 3h-11l-10-5-6-8-2-5v-13l4-8 7-6z" fill="#0F1F30"/>
<path transform="translate(525 1e3)" d="m0 0h11l10 5 6 8 2 7v7l-4 9-7 7-10 4-9-1-9-6-6-8-2-6v-7l3-8 6-7z" fill="#16AEFF"/>
<path transform="translate(162 1e3)" d="m0 0h12l8 4 7 9 2 6v10l-5 8-5 5-6 4-8 1-8-2-8-6-5-7-1-3v-13l5-8 6-5z" fill="#16AEFF"/>
</svg>
